<svg width="2596" height="413" viewBox="0 0 2596 413" fill="none" xmlns="http://www.w3.org/2000/svg">
<g filter="url(#filter0_b_116_30)">
<rect width="2596" height="413" fill="url(#paint0_linear_116_30)"/>
</g>
<path d="M1579 256.386C1579 114.788 1694.06 0 1836 0C1977.94 0 2093 114.788 2093 256.386C2093 315.36 2073.04 369.683 2039.49 413H1963.04H1632C1598.45 369.683 1579 315.36 1579 256.386Z" fill="#85DA56"/>
<path d="M2088.66 251.718C2090.03 251.718 2091.4 251.632 2092.77 251.604C2089.4 112.624 1975.75 1 1835.97 1C1834.6 1 1833.23 1.05711 1831.86 1.08566C1835.23 140.037 1948.85 251.718 2088.66 251.718Z" fill="#2BAE5E"/>
<path d="M1721.55 27.8706C1668.69 54.2274 1626.17 98.2601 1601.79 152.23C1632.86 138.181 1667.21 130.157 1703.39 129.586C1703.33 127.472 1703.22 125.359 1703.22 123.246C1703.22 89.5221 1709.76 57.3399 1721.55 27.8706Z" fill="#2BAE5E"/>
<path d="M1964.44 386.414C1964.44 396.078 1964.05 403.616 1963 413H2006.5H2040C2054.14 394.554 2065.84 375.196 2074.61 353.29C2041.31 369.909 2003.91 379.475 1964.3 380.104C1964.36 382.217 1964.44 384.301 1964.44 386.414Z" fill="#2BAE5E"/>
<path d="M1707.5 129.471C1706.13 129.471 1704.76 129.557 1703.39 129.586C1706.76 268.566 1820.41 380.189 1960.19 380.189C1961.56 380.189 1962.93 380.132 1964.3 380.103C1960.93 241.124 1847.28 129.471 1707.5 129.471Z" fill="#FFC857"/>
<path d="M2092.77 251.604C2091.4 251.632 2090.03 251.718 2088.66 251.718C1948.85 251.718 1835.23 140.066 1831.86 1.05713C1792.25 1.68535 1754.85 11.2515 1721.55 27.8708C1709.76 57.3687 1703.22 89.5222 1703.22 123.218C1703.22 125.359 1703.33 127.444 1703.39 129.557C1704.76 129.529 1706.13 129.443 1707.5 129.443C1847.31 129.443 1960.93 241.095 1964.3 380.104C2003.91 379.475 2041.31 369.909 2074.61 353.29C2086.4 323.792 2092.94 291.638 2092.94 257.943C2092.94 255.801 2092.83 253.717 2092.77 251.604Z" fill="#2BAE5E"/>
<g filter="url(#filter1_d_116_30)">
<path d="M173.455 153.352C183.647 153.352 192.271 155.088 199.327 158.56C206.383 161.92 211.759 166.736 215.455 173.008C219.151 179.168 220.999 186.504 220.999 195.016C220.999 200.056 220.215 205.152 218.647 210.304C217.191 215.344 214.783 219.936 211.423 224.08C208.175 228.224 203.751 231.584 198.151 234.16C192.663 236.624 185.887 237.856 177.823 237.856H160.351V277H135.991V153.352H173.455ZM177.655 214.168C181.351 214.168 184.431 213.552 186.895 212.32C189.359 210.976 191.263 209.352 192.607 207.448C194.063 205.432 195.071 203.36 195.631 201.232C196.303 199.104 196.639 197.256 196.639 195.688C196.639 194.456 196.415 192.832 195.967 190.816C195.631 188.688 194.847 186.56 193.615 184.432C192.383 182.304 190.479 180.512 187.903 179.056C185.439 177.6 182.079 176.872 177.823 176.872H160.351V214.168H177.655ZM264.636 231.304C264.636 235.224 265.812 238.976 268.164 242.56C270.516 246.144 273.596 249.056 277.404 251.296C281.324 253.536 285.58 254.656 290.172 254.656C295.212 254.656 299.692 253.536 303.612 251.296C307.532 249.056 310.612 246.144 312.852 242.56C315.204 238.976 316.38 235.224 316.38 231.304V153.352H340.404V231.808C340.404 240.88 338.164 248.944 333.684 256C329.204 262.944 323.156 268.432 315.54 272.464C307.924 276.384 299.468 278.344 290.172 278.344C280.988 278.344 272.588 276.384 264.972 272.464C257.468 268.432 251.476 262.944 246.996 256C242.516 248.944 240.276 240.88 240.276 231.808V153.352H264.636V231.304ZM406.068 153.352C418.948 153.352 429.196 155.984 436.812 161.248C444.428 166.4 448.236 174.128 448.236 184.432C448.236 192.048 446.332 198.432 442.524 203.584C438.828 208.624 433.732 212.432 427.236 215.008C420.852 217.472 413.516 218.704 405.228 218.704L401.364 205.6C411.556 205.6 420.572 207 428.412 209.8C436.364 212.6 442.636 216.632 447.228 221.896C451.82 227.048 454.116 233.264 454.116 240.544C454.116 247.264 452.884 252.976 450.42 257.68C448.068 262.272 444.82 266.024 440.676 268.936C436.644 271.736 432.052 273.808 426.9 275.152C421.748 276.384 416.428 277 410.94 277H369.78V153.352H406.068ZM408.924 203.92C413.74 203.92 417.268 202.464 419.508 199.552C421.86 196.64 423.036 193.336 423.036 189.64C423.036 185.384 421.58 182.192 418.668 180.064C415.868 177.936 412.06 176.872 407.244 176.872H394.14V203.92H408.924ZM409.764 254.32C413.348 254.32 416.596 253.872 419.508 252.976C422.42 251.968 424.716 250.456 426.396 248.44C428.076 246.312 428.916 243.68 428.916 240.544C428.916 236.96 427.908 234.272 425.892 232.48C423.876 230.576 421.244 229.288 417.996 228.616C414.86 227.832 411.556 227.44 408.084 227.44H394.14V254.32H409.764ZM478.554 153.352H502.914V253.48H561.042V277H478.554V153.352ZM586.179 153.352H610.539V277H586.179V153.352ZM735.188 266.752C733.844 267.872 731.324 269.384 727.628 271.288C724.044 273.192 719.62 274.872 714.356 276.328C709.092 277.784 703.268 278.456 696.884 278.344C687.14 278.12 678.404 276.384 670.676 273.136C663.06 269.776 656.564 265.24 651.188 259.528C645.924 253.816 641.892 247.264 639.092 239.872C636.292 232.48 634.892 224.584 634.892 216.184C634.892 206.776 636.292 198.152 639.092 190.312C642.004 182.472 646.092 175.696 651.356 169.984C656.732 164.272 663.116 159.848 670.508 156.712C677.9 153.576 686.076 152.008 695.036 152.008C703.324 152.008 710.66 153.128 717.044 155.368C723.428 157.608 728.636 160.016 732.668 162.592L723.092 185.608C720.292 183.48 716.54 181.296 711.836 179.056C707.244 176.704 701.924 175.528 695.876 175.528C691.172 175.528 686.636 176.536 682.268 178.552C678.012 180.456 674.204 183.2 670.844 186.784C667.596 190.368 665.02 194.568 663.116 199.384C661.212 204.088 660.26 209.24 660.26 214.84C660.26 220.776 661.1 226.208 662.78 231.136C664.572 236.064 667.092 240.32 670.34 243.904C673.588 247.376 677.452 250.064 681.932 251.968C686.524 253.872 691.676 254.824 697.388 254.824C703.996 254.824 709.652 253.76 714.356 251.632C719.06 249.504 722.644 247.264 725.108 244.912L735.188 266.752ZM745.649 277L801.425 148.48H802.769L858.545 277H830.321L794.705 186.616L812.345 174.52L769.673 277H745.649ZM783.785 232.312H820.913L829.481 252.808H776.225L783.785 232.312ZM914.033 153.352C921.761 153.352 928.649 154.36 934.697 156.376C940.745 158.28 945.785 161.08 949.817 164.776C953.961 168.36 957.097 172.728 959.225 177.88C961.353 182.92 962.417 188.632 962.417 195.016C962.417 200.056 961.633 205.096 960.065 210.136C958.609 215.176 956.145 219.768 952.673 223.912C949.313 228.056 944.833 231.416 939.233 233.992C933.633 236.456 926.689 237.688 918.401 237.688H900.929V277H876.569V153.352H914.033ZM918.233 214.168C921.929 214.168 925.009 213.552 927.473 212.32C929.937 211.088 931.841 209.52 933.185 207.616C934.641 205.712 935.649 203.752 936.209 201.736C936.881 199.608 937.217 197.648 937.217 195.856C937.217 194.512 936.993 192.832 936.545 190.816C936.209 188.688 935.425 186.56 934.193 184.432C932.961 182.304 931.057 180.512 928.481 179.056C926.017 177.6 922.657 176.872 918.401 176.872H900.929V214.168H918.233ZM941.081 229.288L971.657 277H943.265L912.017 229.96L941.081 229.288ZM1157.09 282.04L1063.34 197.368L1070.57 201.4L1071.07 277H1046.37V148.48H1047.38L1139.11 232.816L1133.73 230.464L1133.23 153.352H1157.76V282.04H1157.09ZM1182.04 215.344C1182.04 206.832 1183.66 198.768 1186.91 191.152C1190.16 183.536 1194.64 176.816 1200.35 170.992C1206.18 165.056 1212.9 160.408 1220.51 157.048C1228.13 153.688 1236.3 152.008 1245.04 152.008C1253.66 152.008 1261.78 153.688 1269.4 157.048C1277.02 160.408 1283.74 165.056 1289.56 170.992C1295.5 176.816 1300.09 183.536 1303.34 191.152C1306.7 198.768 1308.38 206.832 1308.38 215.344C1308.38 224.08 1306.7 232.256 1303.34 239.872C1300.09 247.488 1295.5 254.208 1289.56 260.032C1283.74 265.744 1277.02 270.224 1269.4 273.472C1261.78 276.72 1253.66 278.344 1245.04 278.344C1236.3 278.344 1228.13 276.72 1220.51 273.472C1212.9 270.224 1206.18 265.744 1200.35 260.032C1194.64 254.208 1190.16 247.488 1186.91 239.872C1183.66 232.256 1182.04 224.08 1182.04 215.344ZM1207.24 215.344C1207.24 220.832 1208.19 225.984 1210.1 230.8C1212.11 235.504 1214.86 239.704 1218.33 243.4C1221.91 246.984 1226 249.784 1230.59 251.8C1235.3 253.816 1240.39 254.824 1245.88 254.824C1251.14 254.824 1256.02 253.816 1260.5 251.8C1265.09 249.784 1269.06 246.984 1272.42 243.4C1275.78 239.704 1278.42 235.504 1280.32 230.8C1282.22 225.984 1283.18 220.832 1283.18 215.344C1283.18 209.744 1282.17 204.536 1280.15 199.72C1278.25 194.904 1275.56 190.704 1272.09 187.12C1268.73 183.424 1264.75 180.568 1260.16 178.552C1255.57 176.536 1250.58 175.528 1245.21 175.528C1239.83 175.528 1234.85 176.536 1230.26 178.552C1225.66 180.568 1221.63 183.424 1218.16 187.12C1214.69 190.704 1212 194.904 1210.1 199.72C1208.19 204.536 1207.24 209.744 1207.24 215.344ZM1342.94 153.352L1379.06 242.392L1364.95 239.536L1397.71 153.352H1426.61L1370.16 282.712L1313.71 153.352H1342.94ZM1432.07 215.344C1432.07 206.832 1433.7 198.768 1436.94 191.152C1440.19 183.536 1444.67 176.816 1450.38 170.992C1456.21 165.056 1462.93 160.408 1470.54 157.048C1478.16 153.688 1486.34 152.008 1495.07 152.008C1503.7 152.008 1511.82 153.688 1519.43 157.048C1527.05 160.408 1533.77 165.056 1539.59 170.992C1545.53 176.816 1550.12 183.536 1553.37 191.152C1556.73 198.768 1558.41 206.832 1558.41 215.344C1558.41 224.08 1556.73 232.256 1553.37 239.872C1550.12 247.488 1545.53 254.208 1539.59 260.032C1533.77 265.744 1527.05 270.224 1519.43 273.472C1511.82 276.72 1503.7 278.344 1495.07 278.344C1486.34 278.344 1478.16 276.72 1470.54 273.472C1462.93 270.224 1456.21 265.744 1450.38 260.032C1444.67 254.208 1440.19 247.488 1436.94 239.872C1433.7 232.256 1432.07 224.08 1432.07 215.344ZM1457.27 215.344C1457.27 220.832 1458.22 225.984 1460.13 230.8C1462.14 235.504 1464.89 239.704 1468.36 243.4C1471.94 246.984 1476.03 249.784 1480.62 251.8C1485.33 253.816 1490.42 254.824 1495.91 254.824C1501.18 254.824 1506.05 253.816 1510.53 251.8C1515.12 249.784 1519.1 246.984 1522.46 243.4C1525.82 239.704 1528.45 235.504 1530.35 230.8C1532.26 225.984 1533.21 220.832 1533.21 215.344C1533.21 209.744 1532.2 204.536 1530.18 199.72C1528.28 194.904 1525.59 190.704 1522.12 187.12C1518.76 183.424 1514.78 180.568 1510.19 178.552C1505.6 176.536 1500.62 175.528 1495.24 175.528C1489.86 175.528 1484.88 176.536 1480.29 178.552C1475.7 180.568 1471.66 183.424 1468.19 187.12C1464.72 190.704 1462.03 194.904 1460.13 199.72C1458.22 204.536 1457.27 209.744 1457.27 215.344ZM1674.79 153.352C1684.98 153.352 1693.61 155.088 1700.66 158.56C1707.72 161.92 1713.1 166.736 1716.79 173.008C1720.49 179.168 1722.34 186.504 1722.34 195.016C1722.34 200.056 1721.55 205.152 1719.98 210.304C1718.53 215.344 1716.12 219.936 1712.76 224.08C1709.51 228.224 1705.09 231.584 1699.49 234.16C1694 236.624 1687.22 237.856 1679.16 237.856H1661.69V277H1637.33V153.352H1674.79ZM1678.99 214.168C1682.69 214.168 1685.77 213.552 1688.23 212.32C1690.7 210.976 1692.6 209.352 1693.94 207.448C1695.4 205.432 1696.41 203.36 1696.97 201.232C1697.64 199.104 1697.98 197.256 1697.98 195.688C1697.98 194.456 1697.75 192.832 1697.3 190.816C1696.97 188.688 1696.18 186.56 1694.95 184.432C1693.72 182.304 1691.82 180.512 1689.24 179.056C1686.78 177.6 1683.42 176.872 1679.16 176.872H1661.69V214.168H1678.99ZM1781.6 153.352C1789.32 153.352 1796.21 154.36 1802.26 156.376C1808.31 158.28 1813.35 161.08 1817.38 164.776C1821.52 168.36 1824.66 172.728 1826.79 177.88C1828.92 182.92 1829.98 188.632 1829.98 195.016C1829.98 200.056 1829.2 205.096 1827.63 210.136C1826.17 215.176 1823.71 219.768 1820.24 223.912C1816.88 228.056 1812.4 231.416 1806.8 233.992C1801.2 236.456 1794.25 237.688 1785.96 237.688H1768.49V277H1744.13V153.352H1781.6ZM1785.8 214.168C1789.49 214.168 1792.57 213.552 1795.04 212.32C1797.5 211.088 1799.4 209.52 1800.75 207.616C1802.2 205.712 1803.21 203.752 1803.77 201.736C1804.44 199.608 1804.78 197.648 1804.78 195.856C1804.78 194.512 1804.56 192.832 1804.11 190.816C1803.77 188.688 1802.99 186.56 1801.76 184.432C1800.52 182.304 1798.62 180.512 1796.04 179.056C1793.58 177.6 1790.22 176.872 1785.96 176.872H1768.49V214.168H1785.8ZM1808.64 229.288L1839.22 277H1810.83L1779.58 229.96L1808.64 229.288ZM1847.48 215.344C1847.48 206.832 1849.1 198.768 1852.35 191.152C1855.6 183.536 1860.08 176.816 1865.79 170.992C1871.61 165.056 1878.33 160.408 1885.95 157.048C1893.57 153.688 1901.74 152.008 1910.48 152.008C1919.1 152.008 1927.22 153.688 1934.84 157.048C1942.45 160.408 1949.17 165.056 1955 170.992C1960.93 176.816 1965.53 183.536 1968.77 191.152C1972.13 198.768 1973.81 206.832 1973.81 215.344C1973.81 224.08 1972.13 232.256 1968.77 239.872C1965.53 247.488 1960.93 254.208 1955 260.032C1949.17 265.744 1942.45 270.224 1934.84 273.472C1927.22 276.72 1919.1 278.344 1910.48 278.344C1901.74 278.344 1893.57 276.72 1885.95 273.472C1878.33 270.224 1871.61 265.744 1865.79 260.032C1860.08 254.208 1855.6 247.488 1852.35 239.872C1849.1 232.256 1847.48 224.08 1847.48 215.344ZM1872.68 215.344C1872.68 220.832 1873.63 225.984 1875.53 230.8C1877.55 235.504 1880.29 239.704 1883.77 243.4C1887.35 246.984 1891.44 249.784 1896.03 251.8C1900.73 253.816 1905.83 254.824 1911.32 254.824C1916.58 254.824 1921.45 253.816 1925.93 251.8C1930.53 249.784 1934.5 246.984 1937.86 243.4C1941.22 239.704 1943.85 235.504 1945.76 230.8C1947.66 225.984 1948.61 220.832 1948.61 215.344C1948.61 209.744 1947.61 204.536 1945.59 199.72C1943.69 194.904 1941 190.704 1937.53 187.12C1934.17 183.424 1930.19 180.568 1925.6 178.552C1921.01 176.536 1916.02 175.528 1910.65 175.528C1905.27 175.528 1900.29 176.536 1895.69 178.552C1891.1 180.568 1887.07 183.424 1883.6 187.12C1880.13 190.704 1877.44 194.904 1875.53 199.72C1873.63 204.536 1872.68 209.744 1872.68 215.344ZM1998.1 277V153.352H2035.06C2047.49 153.352 2058.08 155.2 2066.81 158.896C2075.55 162.592 2082.55 167.52 2087.81 173.68C2093.19 179.84 2097.11 186.728 2099.57 194.344C2102.04 201.96 2103.27 209.632 2103.27 217.36C2103.27 226.544 2101.59 234.832 2098.23 242.224C2094.98 249.504 2090.5 255.776 2084.79 261.04C2079.08 266.192 2072.47 270.168 2064.96 272.968C2057.46 275.656 2049.51 277 2041.11 277H1998.1ZM2022.46 253.48H2036.91C2043.07 253.48 2048.67 252.696 2053.71 251.128C2058.75 249.448 2063.06 247.04 2066.64 243.904C2070.34 240.768 2073.14 236.848 2075.04 232.144C2077.06 227.328 2078.07 221.84 2078.07 215.68C2078.07 207.616 2076.72 201.064 2074.04 196.024C2071.46 190.872 2068.21 186.896 2064.29 184.096C2060.48 181.296 2056.56 179.392 2052.53 178.384C2048.5 177.264 2045.08 176.704 2042.28 176.704H2022.46V253.48ZM2149.55 231.304C2149.55 235.224 2150.73 238.976 2153.08 242.56C2155.43 246.144 2158.51 249.056 2162.32 251.296C2166.24 253.536 2170.49 254.656 2175.09 254.656C2180.13 254.656 2184.61 253.536 2188.53 251.296C2192.45 249.056 2195.53 246.144 2197.77 242.56C2200.12 238.976 2201.29 235.224 2201.29 231.304V153.352H2225.32V231.808C2225.32 240.88 2223.08 248.944 2218.6 256C2214.12 262.944 2208.07 268.432 2200.45 272.464C2192.84 276.384 2184.38 278.344 2175.09 278.344C2165.9 278.344 2157.5 276.384 2149.89 272.464C2142.38 268.432 2136.39 262.944 2131.91 256C2127.43 248.944 2125.19 240.88 2125.19 231.808V153.352H2149.55V231.304ZM2246.29 153.352H2329.62V176.872H2299.55V277H2275.19V176.872H2246.29V153.352ZM2341.31 215.344C2341.31 206.832 2342.93 198.768 2346.18 191.152C2349.43 183.536 2353.91 176.816 2359.62 170.992C2365.44 165.056 2372.16 160.408 2379.78 157.048C2387.39 153.688 2395.57 152.008 2404.31 152.008C2412.93 152.008 2421.05 153.688 2428.67 157.048C2436.28 160.408 2443 165.056 2448.83 170.992C2454.76 176.816 2459.35 183.536 2462.6 191.152C2465.96 198.768 2467.64 206.832 2467.64 215.344C2467.64 224.08 2465.96 232.256 2462.6 239.872C2459.35 247.488 2454.76 254.208 2448.83 260.032C2443 265.744 2436.28 270.224 2428.67 273.472C2421.05 276.72 2412.93 278.344 2404.31 278.344C2395.57 278.344 2387.39 276.72 2379.78 273.472C2372.16 270.224 2365.44 265.744 2359.62 260.032C2353.91 254.208 2349.43 247.488 2346.18 239.872C2342.93 232.256 2341.31 224.08 2341.31 215.344ZM2366.51 215.344C2366.51 220.832 2367.46 225.984 2369.36 230.8C2371.38 235.504 2374.12 239.704 2377.59 243.4C2381.18 246.984 2385.27 249.784 2389.86 251.8C2394.56 253.816 2399.66 254.824 2405.15 254.824C2410.41 254.824 2415.28 253.816 2419.76 251.8C2424.35 249.784 2428.33 246.984 2431.69 243.4C2435.05 239.704 2437.68 235.504 2439.59 230.8C2441.49 225.984 2442.44 220.832 2442.44 215.344C2442.44 209.744 2441.43 204.536 2439.42 199.72C2437.51 194.904 2434.83 190.704 2431.35 187.12C2427.99 183.424 2424.02 180.568 2419.43 178.552C2414.83 176.536 2409.85 175.528 2404.47 175.528C2399.1 175.528 2394.11 176.536 2389.52 178.552C2384.93 180.568 2380.9 183.424 2377.43 187.12C2373.95 190.704 2371.27 194.904 2369.36 199.72C2367.46 204.536 2366.51 209.744 2366.51 215.344Z" fill="white"/>
</g>
<defs>
<filter id="filter0_b_116_30" x="-135" y="-135" width="2866" height="683" filterUnits="userSpaceOnUse" color-interpolation-filters="sRGB">
<feFlood flood-opacity="0" result="BackgroundImageFix"/>
<feGaussianBlur in="BackgroundImageFix" stdDeviation="67.5"/>
<feComposite in2="SourceAlpha" operator="in" result="effect1_backgroundBlur_116_30"/>
<feBlend mode="normal" in="SourceGraphic" in2="effect1_backgroundBlur_116_30" result="shape"/>
</filter>
<filter id="filter1_d_116_30" x="131.991" y="148.48" width="2339.65" height="142.232" filterUnits="userSpaceOnUse" color-interpolation-filters="sRGB">
<feFlood flood-opacity="0" result="BackgroundImageFix"/>
<feColorMatrix in="SourceAlpha" type="matrix" values="0 0 0 0 0 0 0 0 0 0 0 0 0 0 0 0 0 0 127 0" result="hardAlpha"/>
<feOffset dy="4"/>
<feGaussianBlur stdDeviation="2"/>
<feComposite in2="hardAlpha" operator="out"/>
<feColorMatrix type="matrix" values="0 0 0 0 0 0 0 0 0 0 0 0 0 0 0 0 0 0 0.25 0"/>
<feBlend mode="normal" in2="BackgroundImageFix" result="effect1_dropShadow_116_30"/>
<feBlend mode="normal" in="SourceGraphic" in2="effect1_dropShadow_116_30" result="shape"/>
</filter>
<linearGradient id="paint0_linear_116_30" x1="0" y1="413" x2="2575.83" y2="-25.7513" gradientUnits="userSpaceOnUse">
<stop stop-color="#2BAE5E"/>
<stop offset="1" stop-color="#85DA56"/>
</linearGradient>
</defs>
</svg>
