<svg width="2596" height="415" viewBox="0 0 2596 415" fill="none" xmlns="http://www.w3.org/2000/svg">
<g filter="url(#filter0_b_116_29)">
<rect y="1" width="2596" height="413" fill="url(#paint0_linear_116_29)"/>
</g>
<path d="M1835.97 0.0571289C1694.05 0.0571289 1579 115.107 1579 257.029C1579 316.137 1598.96 370.584 1632.5 414H1829.5H1963H2039.44C2072.99 370.584 2092.94 316.137 2092.94 257.029C2092.94 115.107 1977.89 0.0571289 1835.97 0.0571289Z" fill="#85DA56"/>
<path d="M2088.66 251.718C2090.03 251.718 2091.4 251.632 2092.77 251.604C2089.4 112.624 1975.75 1 1835.97 1C1834.6 1 1833.23 1.05711 1831.86 1.08566C1835.23 140.037 1948.85 251.718 2088.66 251.718Z" fill="#2BAE5E"/>
<path d="M1721.55 27.8706C1668.69 54.2274 1626.17 98.2601 1601.79 152.23C1632.86 138.181 1667.21 130.157 1703.39 129.586C1703.33 127.472 1703.22 125.359 1703.22 123.246C1703.22 89.5221 1709.76 57.3399 1721.55 27.8706Z" fill="#2BAE5E"/>
<path d="M1964.44 386.414C1964.44 396.078 1964.05 404.675 1963 414.06H2006.5H2040C2054.14 395.614 2065.84 375.196 2074.61 353.29C2041.31 369.909 2003.91 379.475 1964.3 380.104C1964.36 382.217 1964.44 384.301 1964.44 386.414Z" fill="#2BAE5E"/>
<path d="M1707.5 129.471C1706.13 129.471 1704.76 129.557 1703.39 129.586C1706.76 268.566 1820.41 380.189 1960.19 380.189C1961.56 380.189 1962.93 380.132 1964.3 380.103C1960.93 241.124 1847.28 129.471 1707.5 129.471Z" fill="#FFC857"/>
<path d="M2092.77 251.604C2091.4 251.632 2090.03 251.718 2088.66 251.718C1948.85 251.718 1835.23 140.066 1831.86 1.05713C1792.25 1.68535 1754.85 11.2515 1721.55 27.8708C1709.76 57.3687 1703.22 89.5222 1703.22 123.218C1703.22 125.359 1703.33 127.444 1703.39 129.557C1704.76 129.529 1706.13 129.443 1707.5 129.443C1847.31 129.443 1960.93 241.095 1964.3 380.104C2003.91 379.475 2041.31 369.909 2074.61 353.29C2086.4 323.792 2092.94 291.638 2092.94 257.943C2092.94 255.801 2092.83 253.717 2092.77 251.604Z" fill="#2BAE5E"/>
<g filter="url(#filter1_d_116_29)">
<path d="M173.455 154.352C183.647 154.352 192.271 156.088 199.327 159.56C206.383 162.92 211.759 167.736 215.455 174.008C219.151 180.168 220.999 187.504 220.999 196.016C220.999 201.056 220.215 206.152 218.647 211.304C217.191 216.344 214.783 220.936 211.423 225.08C208.175 229.224 203.751 232.584 198.151 235.16C192.663 237.624 185.887 238.856 177.823 238.856H160.351V278H135.991V154.352H173.455ZM177.655 215.168C181.351 215.168 184.431 214.552 186.895 213.32C189.359 211.976 191.263 210.352 192.607 208.448C194.063 206.432 195.071 204.36 195.631 202.232C196.303 200.104 196.639 198.256 196.639 196.688C196.639 195.456 196.415 193.832 195.967 191.816C195.631 189.688 194.847 187.56 193.615 185.432C192.383 183.304 190.479 181.512 187.903 180.056C185.439 178.6 182.079 177.872 177.823 177.872H160.351V215.168H177.655ZM264.636 232.304C264.636 236.224 265.812 239.976 268.164 243.56C270.516 247.144 273.596 250.056 277.404 252.296C281.324 254.536 285.58 255.656 290.172 255.656C295.212 255.656 299.692 254.536 303.612 252.296C307.532 250.056 310.612 247.144 312.852 243.56C315.204 239.976 316.38 236.224 316.38 232.304V154.352H340.404V232.808C340.404 241.88 338.164 249.944 333.684 257C329.204 263.944 323.156 269.432 315.54 273.464C307.924 277.384 299.468 279.344 290.172 279.344C280.988 279.344 272.588 277.384 264.972 273.464C257.468 269.432 251.476 263.944 246.996 257C242.516 249.944 240.276 241.88 240.276 232.808V154.352H264.636V232.304ZM406.068 154.352C418.948 154.352 429.196 156.984 436.812 162.248C444.428 167.4 448.236 175.128 448.236 185.432C448.236 193.048 446.332 199.432 442.524 204.584C438.828 209.624 433.732 213.432 427.236 216.008C420.852 218.472 413.516 219.704 405.228 219.704L401.364 206.6C411.556 206.6 420.572 208 428.412 210.8C436.364 213.6 442.636 217.632 447.228 222.896C451.82 228.048 454.116 234.264 454.116 241.544C454.116 248.264 452.884 253.976 450.42 258.68C448.068 263.272 444.82 267.024 440.676 269.936C436.644 272.736 432.052 274.808 426.9 276.152C421.748 277.384 416.428 278 410.94 278H369.78V154.352H406.068ZM408.924 204.92C413.74 204.92 417.268 203.464 419.508 200.552C421.86 197.64 423.036 194.336 423.036 190.64C423.036 186.384 421.58 183.192 418.668 181.064C415.868 178.936 412.06 177.872 407.244 177.872H394.14V204.92H408.924ZM409.764 255.32C413.348 255.32 416.596 254.872 419.508 253.976C422.42 252.968 424.716 251.456 426.396 249.44C428.076 247.312 428.916 244.68 428.916 241.544C428.916 237.96 427.908 235.272 425.892 233.48C423.876 231.576 421.244 230.288 417.996 229.616C414.86 228.832 411.556 228.44 408.084 228.44H394.14V255.32H409.764ZM478.554 154.352H502.914V254.48H561.042V278H478.554V154.352ZM586.179 154.352H610.539V278H586.179V154.352ZM735.188 267.752C733.844 268.872 731.324 270.384 727.628 272.288C724.044 274.192 719.62 275.872 714.356 277.328C709.092 278.784 703.268 279.456 696.884 279.344C687.14 279.12 678.404 277.384 670.676 274.136C663.06 270.776 656.564 266.24 651.188 260.528C645.924 254.816 641.892 248.264 639.092 240.872C636.292 233.48 634.892 225.584 634.892 217.184C634.892 207.776 636.292 199.152 639.092 191.312C642.004 183.472 646.092 176.696 651.356 170.984C656.732 165.272 663.116 160.848 670.508 157.712C677.9 154.576 686.076 153.008 695.036 153.008C703.324 153.008 710.66 154.128 717.044 156.368C723.428 158.608 728.636 161.016 732.668 163.592L723.092 186.608C720.292 184.48 716.54 182.296 711.836 180.056C707.244 177.704 701.924 176.528 695.876 176.528C691.172 176.528 686.636 177.536 682.268 179.552C678.012 181.456 674.204 184.2 670.844 187.784C667.596 191.368 665.02 195.568 663.116 200.384C661.212 205.088 660.26 210.24 660.26 215.84C660.26 221.776 661.1 227.208 662.78 232.136C664.572 237.064 667.092 241.32 670.34 244.904C673.588 248.376 677.452 251.064 681.932 252.968C686.524 254.872 691.676 255.824 697.388 255.824C703.996 255.824 709.652 254.76 714.356 252.632C719.06 250.504 722.644 248.264 725.108 245.912L735.188 267.752ZM745.649 278L801.425 149.48H802.769L858.545 278H830.321L794.705 187.616L812.345 175.52L769.673 278H745.649ZM783.785 233.312H820.913L829.481 253.808H776.225L783.785 233.312ZM914.033 154.352C921.761 154.352 928.649 155.36 934.697 157.376C940.745 159.28 945.785 162.08 949.817 165.776C953.961 169.36 957.097 173.728 959.225 178.88C961.353 183.92 962.417 189.632 962.417 196.016C962.417 201.056 961.633 206.096 960.065 211.136C958.609 216.176 956.145 220.768 952.673 224.912C949.313 229.056 944.833 232.416 939.233 234.992C933.633 237.456 926.689 238.688 918.401 238.688H900.929V278H876.569V154.352H914.033ZM918.233 215.168C921.929 215.168 925.009 214.552 927.473 213.32C929.937 212.088 931.841 210.52 933.185 208.616C934.641 206.712 935.649 204.752 936.209 202.736C936.881 200.608 937.217 198.648 937.217 196.856C937.217 195.512 936.993 193.832 936.545 191.816C936.209 189.688 935.425 187.56 934.193 185.432C932.961 183.304 931.057 181.512 928.481 180.056C926.017 178.6 922.657 177.872 918.401 177.872H900.929V215.168H918.233ZM941.081 230.288L971.657 278H943.265L912.017 230.96L941.081 230.288ZM1157.09 283.04L1063.34 198.368L1070.57 202.4L1071.07 278H1046.37V149.48H1047.38L1139.11 233.816L1133.73 231.464L1133.23 154.352H1157.76V283.04H1157.09ZM1182.04 216.344C1182.04 207.832 1183.66 199.768 1186.91 192.152C1190.16 184.536 1194.64 177.816 1200.35 171.992C1206.18 166.056 1212.9 161.408 1220.51 158.048C1228.13 154.688 1236.3 153.008 1245.04 153.008C1253.66 153.008 1261.78 154.688 1269.4 158.048C1277.02 161.408 1283.74 166.056 1289.56 171.992C1295.5 177.816 1300.09 184.536 1303.34 192.152C1306.7 199.768 1308.38 207.832 1308.38 216.344C1308.38 225.08 1306.7 233.256 1303.34 240.872C1300.09 248.488 1295.5 255.208 1289.56 261.032C1283.74 266.744 1277.02 271.224 1269.4 274.472C1261.78 277.72 1253.66 279.344 1245.04 279.344C1236.3 279.344 1228.13 277.72 1220.51 274.472C1212.9 271.224 1206.18 266.744 1200.35 261.032C1194.64 255.208 1190.16 248.488 1186.91 240.872C1183.66 233.256 1182.04 225.08 1182.04 216.344ZM1207.24 216.344C1207.24 221.832 1208.19 226.984 1210.1 231.8C1212.11 236.504 1214.86 240.704 1218.33 244.4C1221.91 247.984 1226 250.784 1230.59 252.8C1235.3 254.816 1240.39 255.824 1245.88 255.824C1251.14 255.824 1256.02 254.816 1260.5 252.8C1265.09 250.784 1269.06 247.984 1272.42 244.4C1275.78 240.704 1278.42 236.504 1280.32 231.8C1282.22 226.984 1283.18 221.832 1283.18 216.344C1283.18 210.744 1282.17 205.536 1280.15 200.72C1278.25 195.904 1275.56 191.704 1272.09 188.12C1268.73 184.424 1264.75 181.568 1260.16 179.552C1255.57 177.536 1250.58 176.528 1245.21 176.528C1239.83 176.528 1234.85 177.536 1230.26 179.552C1225.66 181.568 1221.63 184.424 1218.16 188.12C1214.69 191.704 1212 195.904 1210.1 200.72C1208.19 205.536 1207.24 210.744 1207.24 216.344ZM1342.94 154.352L1379.06 243.392L1364.95 240.536L1397.71 154.352H1426.61L1370.16 283.712L1313.71 154.352H1342.94ZM1432.07 216.344C1432.07 207.832 1433.7 199.768 1436.94 192.152C1440.19 184.536 1444.67 177.816 1450.38 171.992C1456.21 166.056 1462.93 161.408 1470.54 158.048C1478.16 154.688 1486.34 153.008 1495.07 153.008C1503.7 153.008 1511.82 154.688 1519.43 158.048C1527.05 161.408 1533.77 166.056 1539.59 171.992C1545.53 177.816 1550.12 184.536 1553.37 192.152C1556.73 199.768 1558.41 207.832 1558.41 216.344C1558.41 225.08 1556.73 233.256 1553.37 240.872C1550.12 248.488 1545.53 255.208 1539.59 261.032C1533.77 266.744 1527.05 271.224 1519.43 274.472C1511.82 277.72 1503.7 279.344 1495.07 279.344C1486.34 279.344 1478.16 277.72 1470.54 274.472C1462.93 271.224 1456.21 266.744 1450.38 261.032C1444.67 255.208 1440.19 248.488 1436.94 240.872C1433.7 233.256 1432.07 225.08 1432.07 216.344ZM1457.27 216.344C1457.27 221.832 1458.22 226.984 1460.13 231.8C1462.14 236.504 1464.89 240.704 1468.36 244.4C1471.94 247.984 1476.03 250.784 1480.62 252.8C1485.33 254.816 1490.42 255.824 1495.91 255.824C1501.18 255.824 1506.05 254.816 1510.53 252.8C1515.12 250.784 1519.1 247.984 1522.46 244.4C1525.82 240.704 1528.45 236.504 1530.35 231.8C1532.26 226.984 1533.21 221.832 1533.21 216.344C1533.21 210.744 1532.2 205.536 1530.18 200.72C1528.28 195.904 1525.59 191.704 1522.12 188.12C1518.76 184.424 1514.78 181.568 1510.19 179.552C1505.6 177.536 1500.62 176.528 1495.24 176.528C1489.86 176.528 1484.88 177.536 1480.29 179.552C1475.7 181.568 1471.66 184.424 1468.19 188.12C1464.72 191.704 1462.03 195.904 1460.13 200.72C1458.22 205.536 1457.27 210.744 1457.27 216.344ZM1674.79 154.352C1684.98 154.352 1693.61 156.088 1700.66 159.56C1707.72 162.92 1713.1 167.736 1716.79 174.008C1720.49 180.168 1722.34 187.504 1722.34 196.016C1722.34 201.056 1721.55 206.152 1719.98 211.304C1718.53 216.344 1716.12 220.936 1712.76 225.08C1709.51 229.224 1705.09 232.584 1699.49 235.16C1694 237.624 1687.22 238.856 1679.16 238.856H1661.69V278H1637.33V154.352H1674.79ZM1678.99 215.168C1682.69 215.168 1685.77 214.552 1688.23 213.32C1690.7 211.976 1692.6 210.352 1693.94 208.448C1695.4 206.432 1696.41 204.36 1696.97 202.232C1697.64 200.104 1697.98 198.256 1697.98 196.688C1697.98 195.456 1697.75 193.832 1697.3 191.816C1696.97 189.688 1696.18 187.56 1694.95 185.432C1693.72 183.304 1691.82 181.512 1689.24 180.056C1686.78 178.6 1683.42 177.872 1679.16 177.872H1661.69V215.168H1678.99ZM1781.6 154.352C1789.32 154.352 1796.21 155.36 1802.26 157.376C1808.31 159.28 1813.35 162.08 1817.38 165.776C1821.52 169.36 1824.66 173.728 1826.79 178.88C1828.92 183.92 1829.98 189.632 1829.98 196.016C1829.98 201.056 1829.2 206.096 1827.63 211.136C1826.17 216.176 1823.71 220.768 1820.24 224.912C1816.88 229.056 1812.4 232.416 1806.8 234.992C1801.2 237.456 1794.25 238.688 1785.96 238.688H1768.49V278H1744.13V154.352H1781.6ZM1785.8 215.168C1789.49 215.168 1792.57 214.552 1795.04 213.32C1797.5 212.088 1799.4 210.52 1800.75 208.616C1802.2 206.712 1803.21 204.752 1803.77 202.736C1804.44 200.608 1804.78 198.648 1804.78 196.856C1804.78 195.512 1804.56 193.832 1804.11 191.816C1803.77 189.688 1802.99 187.56 1801.76 185.432C1800.52 183.304 1798.62 181.512 1796.04 180.056C1793.58 178.6 1790.22 177.872 1785.96 177.872H1768.49V215.168H1785.8ZM1808.64 230.288L1839.22 278H1810.83L1779.58 230.96L1808.64 230.288ZM1847.48 216.344C1847.48 207.832 1849.1 199.768 1852.35 192.152C1855.6 184.536 1860.08 177.816 1865.79 171.992C1871.61 166.056 1878.33 161.408 1885.95 158.048C1893.57 154.688 1901.74 153.008 1910.48 153.008C1919.1 153.008 1927.22 154.688 1934.84 158.048C1942.45 161.408 1949.17 166.056 1955 171.992C1960.93 177.816 1965.53 184.536 1968.77 192.152C1972.13 199.768 1973.81 207.832 1973.81 216.344C1973.81 225.08 1972.13 233.256 1968.77 240.872C1965.53 248.488 1960.93 255.208 1955 261.032C1949.17 266.744 1942.45 271.224 1934.84 274.472C1927.22 277.72 1919.1 279.344 1910.48 279.344C1901.74 279.344 1893.57 277.72 1885.95 274.472C1878.33 271.224 1871.61 266.744 1865.79 261.032C1860.08 255.208 1855.6 248.488 1852.35 240.872C1849.1 233.256 1847.48 225.08 1847.48 216.344ZM1872.68 216.344C1872.68 221.832 1873.63 226.984 1875.53 231.8C1877.55 236.504 1880.29 240.704 1883.77 244.4C1887.35 247.984 1891.44 250.784 1896.03 252.8C1900.73 254.816 1905.83 255.824 1911.32 255.824C1916.58 255.824 1921.45 254.816 1925.93 252.8C1930.53 250.784 1934.5 247.984 1937.86 244.4C1941.22 240.704 1943.85 236.504 1945.76 231.8C1947.66 226.984 1948.61 221.832 1948.61 216.344C1948.61 210.744 1947.61 205.536 1945.59 200.72C1943.69 195.904 1941 191.704 1937.53 188.12C1934.17 184.424 1930.19 181.568 1925.6 179.552C1921.01 177.536 1916.02 176.528 1910.65 176.528C1905.27 176.528 1900.29 177.536 1895.69 179.552C1891.1 181.568 1887.07 184.424 1883.6 188.12C1880.13 191.704 1877.44 195.904 1875.53 200.72C1873.63 205.536 1872.68 210.744 1872.68 216.344ZM1998.1 278V154.352H2035.06C2047.49 154.352 2058.08 156.2 2066.81 159.896C2075.55 163.592 2082.55 168.52 2087.81 174.68C2093.19 180.84 2097.11 187.728 2099.57 195.344C2102.04 202.96 2103.27 210.632 2103.27 218.36C2103.27 227.544 2101.59 235.832 2098.23 243.224C2094.98 250.504 2090.5 256.776 2084.79 262.04C2079.08 267.192 2072.47 271.168 2064.96 273.968C2057.46 276.656 2049.51 278 2041.11 278H1998.1ZM2022.46 254.48H2036.91C2043.07 254.48 2048.67 253.696 2053.71 252.128C2058.75 250.448 2063.06 248.04 2066.64 244.904C2070.34 241.768 2073.14 237.848 2075.04 233.144C2077.06 228.328 2078.07 222.84 2078.07 216.68C2078.07 208.616 2076.72 202.064 2074.04 197.024C2071.46 191.872 2068.21 187.896 2064.29 185.096C2060.48 182.296 2056.56 180.392 2052.53 179.384C2048.5 178.264 2045.08 177.704 2042.28 177.704H2022.46V254.48ZM2149.55 232.304C2149.55 236.224 2150.73 239.976 2153.08 243.56C2155.43 247.144 2158.51 250.056 2162.32 252.296C2166.24 254.536 2170.49 255.656 2175.09 255.656C2180.13 255.656 2184.61 254.536 2188.53 252.296C2192.45 250.056 2195.53 247.144 2197.77 243.56C2200.12 239.976 2201.29 236.224 2201.29 232.304V154.352H2225.32V232.808C2225.32 241.88 2223.08 249.944 2218.6 257C2214.12 263.944 2208.07 269.432 2200.45 273.464C2192.84 277.384 2184.38 279.344 2175.09 279.344C2165.9 279.344 2157.5 277.384 2149.89 273.464C2142.38 269.432 2136.39 263.944 2131.91 257C2127.43 249.944 2125.19 241.88 2125.19 232.808V154.352H2149.55V232.304ZM2246.29 154.352H2329.62V177.872H2299.55V278H2275.19V177.872H2246.29V154.352ZM2341.31 216.344C2341.31 207.832 2342.93 199.768 2346.18 192.152C2349.43 184.536 2353.91 177.816 2359.62 171.992C2365.44 166.056 2372.16 161.408 2379.78 158.048C2387.39 154.688 2395.57 153.008 2404.31 153.008C2412.93 153.008 2421.05 154.688 2428.67 158.048C2436.28 161.408 2443 166.056 2448.83 171.992C2454.76 177.816 2459.35 184.536 2462.6 192.152C2465.96 199.768 2467.64 207.832 2467.64 216.344C2467.64 225.08 2465.96 233.256 2462.6 240.872C2459.35 248.488 2454.76 255.208 2448.83 261.032C2443 266.744 2436.28 271.224 2428.67 274.472C2421.05 277.72 2412.93 279.344 2404.31 279.344C2395.57 279.344 2387.39 277.72 2379.78 274.472C2372.16 271.224 2365.44 266.744 2359.62 261.032C2353.91 255.208 2349.43 248.488 2346.18 240.872C2342.93 233.256 2341.31 225.08 2341.31 216.344ZM2366.51 216.344C2366.51 221.832 2367.46 226.984 2369.36 231.8C2371.38 236.504 2374.12 240.704 2377.59 244.4C2381.18 247.984 2385.27 250.784 2389.86 252.8C2394.56 254.816 2399.66 255.824 2405.15 255.824C2410.41 255.824 2415.28 254.816 2419.76 252.8C2424.35 250.784 2428.33 247.984 2431.69 244.4C2435.05 240.704 2437.68 236.504 2439.59 231.8C2441.49 226.984 2442.44 221.832 2442.44 216.344C2442.44 210.744 2441.43 205.536 2439.42 200.72C2437.51 195.904 2434.83 191.704 2431.35 188.12C2427.99 184.424 2424.02 181.568 2419.43 179.552C2414.83 177.536 2409.85 176.528 2404.47 176.528C2399.1 176.528 2394.11 177.536 2389.52 179.552C2384.93 181.568 2380.9 184.424 2377.43 188.12C2373.95 191.704 2371.27 195.904 2369.36 200.72C2367.46 205.536 2366.51 210.744 2366.51 216.344Z" fill="white"/>
</g>
<defs>
<filter id="filter0_b_116_29" x="-135" y="-134" width="2866" height="683" filterUnits="userSpaceOnUse" color-interpolation-filters="sRGB">
<feFlood flood-opacity="0" result="BackgroundImageFix"/>
<feGaussianBlur in="BackgroundImageFix" stdDeviation="67.5"/>
<feComposite in2="SourceAlpha" operator="in" result="effect1_backgroundBlur_116_29"/>
<feBlend mode="normal" in="SourceGraphic" in2="effect1_backgroundBlur_116_29" result="shape"/>
</filter>
<filter id="filter1_d_116_29" x="131.991" y="149.48" width="2339.65" height="142.232" filterUnits="userSpaceOnUse" color-interpolation-filters="sRGB">
<feFlood flood-opacity="0" result="BackgroundImageFix"/>
<feColorMatrix in="SourceAlpha" type="matrix" values="0 0 0 0 0 0 0 0 0 0 0 0 0 0 0 0 0 0 127 0" result="hardAlpha"/>
<feOffset dy="4"/>
<feGaussianBlur stdDeviation="2"/>
<feComposite in2="hardAlpha" operator="out"/>
<feColorMatrix type="matrix" values="0 0 0 0 0 0 0 0 0 0 0 0 0 0 0 0 0 0 0.25 0"/>
<feBlend mode="normal" in2="BackgroundImageFix" result="effect1_dropShadow_116_29"/>
<feBlend mode="normal" in="SourceGraphic" in2="effect1_dropShadow_116_29" result="shape"/>
</filter>
<linearGradient id="paint0_linear_116_29" x1="0" y1="414" x2="2575.83" y2="-24.7513" gradientUnits="userSpaceOnUse">
<stop stop-color="#2BAE5E"/>
<stop offset="1" stop-color="#85DA56"/>
</linearGradient>
</defs>
</svg>
